<svg version="1.1" id="Layer_1" xmlns="http://www.w3.org/2000/svg" xmlns:xlink="http://www.w3.org/1999/xlink" x="0px" y="0px"
	 width="100%" viewBox="0 0 200 200" enable-background="new 0 0 200 200" xml:space="preserve">
<path fill="#FFFFFF" opacity="1.000000" stroke="none" 
	d="
M120.000000,201.000000 
	C80.024696,201.000000 40.549400,201.000000 1.037050,201.000000 
	C1.037050,134.399734 1.037050,67.799454 1.037050,1.099581 
	C67.558464,1.099581 134.117126,1.099581 200.837891,1.099581 
	C200.837891,67.666351 200.837891,134.333145 200.837891,201.000000 
	C174.133072,201.000000 147.316528,201.000000 120.000000,201.000000 
M72.525093,83.903229 
	C43.470001,82.469910 32.698521,104.469849 37.815517,128.772156 
	C63.381359,128.772156 88.947197,128.772156 115.096481,128.772156 
	C115.096481,123.847420 115.082825,119.230309 115.099075,114.613304 
	C115.145706,101.367592 108.685715,92.346741 97.065125,86.578743 
	C89.513802,82.830559 81.433754,84.183891 72.525093,83.903229 
M73.503296,137.908188 
	C68.421188,137.908188 63.339073,137.908188 58.370399,137.908188 
	C58.370399,150.750366 58.370399,162.739670 58.370399,175.593903 
	C63.648968,172.967117 68.311813,170.852646 72.762398,168.359283 
	C75.705978,166.710205 78.207008,166.752426 81.147720,168.364548 
	C85.868683,170.952591 90.791054,173.173233 95.711380,175.589935 
	C96.325722,174.275604 96.698494,173.848282 96.700844,173.418945 
	C96.760040,162.606476 96.727089,151.793243 96.842293,140.981537 
	C96.873749,138.029770 95.176559,137.871933 92.968704,137.890961 
	C86.813461,137.943985 80.657455,137.908539 73.503296,137.908188 
M122.168320,113.545647 
	C121.786880,116.809326 123.880241,116.871223 126.255898,116.856651 
	C135.239380,116.801544 144.223404,116.834930 153.207214,116.834999 
	C165.874649,116.835098 165.874664,116.835014 165.711411,104.233543 
	C165.485718,86.810089 155.281784,74.399101 138.005356,71.871170 
	C130.516846,70.775429 122.737480,71.099052 115.137749,71.560600 
	C111.048927,71.808914 107.060631,73.712372 103.026978,74.869019 
	C102.895332,75.451530 102.763680,76.034042 102.632034,76.616554 
	C104.388367,77.987022 106.175797,80.569778 107.895851,80.525665 
	C117.113564,80.289253 126.316422,78.830109 135.520767,78.861519 
	C150.704849,78.913338 161.358093,94.018845 157.118774,109.288254 
	C155.445587,109.288254 153.643494,109.288223 151.841400,109.288246 
	C143.523041,109.288361 135.204697,109.294289 126.886345,109.285004 
	C124.475082,109.282310 121.981697,109.122345 122.168320,113.545647 
M142.782532,60.218925 
	C150.195145,49.291294 148.906845,38.826580 139.140900,30.638193 
	C132.702438,25.239780 123.000877,24.543781 115.320831,28.929321 
	C107.475937,33.408993 103.444115,41.649418 104.871864,50.219681 
	C106.287651,58.718201 111.098717,64.518524 119.244621,67.024559 
	C128.072601,69.740433 135.965317,67.760048 142.782532,60.218925 
M67.561440,41.825676 
	C66.817207,42.192268 66.043465,42.509380 65.333237,42.932991 
	C56.890919,47.968365 53.327698,55.870819 55.038139,65.719826 
	C56.296520,72.965767 63.347855,79.967377 71.138863,81.707016 
	C79.921570,83.668098 88.718208,80.180115 93.784157,72.727844 
	C98.656288,65.560715 98.678963,56.091316 93.839951,49.434055 
	C87.783707,41.102177 78.642281,38.269318 67.561440,41.825676 
z"/>
<path fill="#A49CFF" opacity="1.000000" stroke="none" 
	d="
M73.020615,83.903137 
	C81.433754,84.183891 89.513802,82.830559 97.065125,86.578743 
	C108.685715,92.346741 115.145706,101.367592 115.099075,114.613304 
	C115.082825,119.230309 115.096481,123.847420 115.096481,128.772156 
	C88.947197,128.772156 63.381359,128.772156 37.815517,128.774124 
	C32.698521,104.469849 43.470001,82.469910 73.020615,83.903137 
M66.500046,122.075211 
	C80.242439,122.075211 93.984840,122.075211 107.568298,122.075211 
	C110.912964,102.478302 97.205833,89.512871 80.749435,90.873840 
	C76.613861,91.215851 72.425644,90.886887 68.262413,90.934914 
	C51.857655,91.124184 40.878967,105.371132 44.753799,122.075363 
	C51.584511,122.075363 58.542316,122.075363 66.500046,122.075211 
z"/>
<path fill="#C982FF" opacity="1.000000" stroke="none" 
	d="
M74.002525,137.908112 
	C80.657455,137.908539 86.813461,137.943985 92.968704,137.890961 
	C95.176559,137.871933 96.873749,138.029770 96.842293,140.981537 
	C96.727089,151.793243 96.760040,162.606476 96.700844,173.418945 
	C96.698494,173.848282 96.325722,174.275604 95.711380,175.589935 
	C90.791054,173.173233 85.868683,170.952591 81.147720,168.364548 
	C78.207008,166.752426 75.705978,166.710205 72.762398,168.359283 
	C68.311813,170.852646 63.648968,172.967117 58.370399,175.593903 
	C58.370399,162.739670 58.370399,150.750366 58.370399,137.908188 
	C63.339073,137.908188 68.421188,137.908188 74.002525,137.908112 
z"/>
<path fill="#CB87FF" opacity="1.000000" stroke="none" 
	d="
M122.169807,113.120590 
	C121.981697,109.122345 124.475082,109.282310 126.886345,109.285004 
	C135.204697,109.294289 143.523041,109.288361 151.841400,109.288246 
	C153.643494,109.288223 155.445587,109.288254 157.118774,109.288254 
	C161.358093,94.018845 150.704849,78.913338 135.520767,78.861519 
	C126.316422,78.830109 117.113564,80.289253 107.895851,80.525665 
	C106.175797,80.569778 104.388367,77.987022 102.632034,76.616554 
	C102.763680,76.034042 102.895332,75.451530 103.026978,74.869019 
	C107.060631,73.712372 111.048927,71.808914 115.137749,71.560600 
	C122.737480,71.099052 130.516846,70.775429 138.005356,71.871170 
	C155.281784,74.399101 165.485718,86.810089 165.711411,104.233543 
	C165.874664,116.835014 165.874649,116.835098 153.207214,116.834999 
	C144.223404,116.834930 135.239380,116.801544 126.255898,116.856651 
	C123.880241,116.871223 121.786880,116.809326 122.169807,113.120590 
z"/>
<path fill="#CA84FF" opacity="1.000000" stroke="none" 
	d="
M142.568420,60.511524 
	C135.965317,67.760048 128.072601,69.740433 119.244621,67.024559 
	C111.098717,64.518524 106.287651,58.718201 104.871864,50.219681 
	C103.444115,41.649418 107.475937,33.408993 115.320831,28.929321 
	C123.000877,24.543781 132.702438,25.239780 139.140900,30.638193 
	C148.906845,38.826580 150.195145,49.291294 142.568420,60.511524 
M133.011017,35.248287 
	C127.722008,32.216648 122.509125,32.583645 117.626884,36.002945 
	C112.785896,39.393345 110.728149,45.740513 112.422935,50.972153 
	C114.311691,56.802532 119.868103,60.934715 125.890526,60.987686 
	C131.922729,61.040749 137.417038,57.059639 139.459824,51.155529 
	C141.436127,45.443600 139.406357,40.037033 133.011017,35.248287 
z"/>
<path fill="#A49CFF" opacity="1.000000" stroke="none" 
	d="
M67.921204,41.669586 
	C78.642281,38.269318 87.783707,41.102177 93.839951,49.434055 
	C98.678963,56.091316 98.656288,65.560715 93.784157,72.727844 
	C88.718208,80.180115 79.921570,83.668098 71.138863,81.707016 
	C63.347855,79.967377 56.296520,72.965767 55.038139,65.719826 
	C53.327698,55.870819 56.890919,47.968365 65.333237,42.932991 
	C66.043465,42.509380 66.817207,42.192268 67.921204,41.669586 
M80.252670,47.982109 
	C74.452095,46.261086 69.409447,47.565819 65.397781,52.070221 
	C61.945957,55.946018 60.898224,60.502159 62.699455,65.475067 
	C64.909439,71.576492 70.867676,75.479019 76.977173,74.970802 
	C83.191757,74.453857 88.812889,69.533813 89.927681,63.635548 
	C91.137299,57.235569 87.866302,51.544876 80.252670,47.982109 
z"/>
<path fill="#FFFEFF" opacity="1.000000" stroke="none" 
	d="
M66.000084,122.075287 
	C58.542316,122.075363 51.584511,122.075363 44.753799,122.075363 
	C40.878967,105.371132 51.857655,91.124184 68.262413,90.934914 
	C72.425644,90.886887 76.613861,91.215851 80.749435,90.873840 
	C97.205833,89.512871 110.912964,102.478302 107.568298,122.075211 
	C93.984840,122.075211 80.242439,122.075211 66.000084,122.075287 
z"/>
<path fill="#FEFEFF" opacity="1.000000" stroke="none" 
	d="
M133.327576,35.456455 
	C139.406357,40.037033 141.436127,45.443600 139.459824,51.155529 
	C137.417038,57.059639 131.922729,61.040749 125.890526,60.987686 
	C119.868103,60.934715 114.311691,56.802532 112.422935,50.972153 
	C110.728149,45.740513 112.785896,39.393345 117.626884,36.002945 
	C122.509125,32.583645 127.722008,32.216648 133.327576,35.456455 
z"/>
<path fill="#FEFEFF" opacity="1.000000" stroke="none" 
	d="
M80.634285,48.056717 
	C87.866302,51.544876 91.137299,57.235569 89.927681,63.635548 
	C88.812889,69.533813 83.191757,74.453857 76.977173,74.970802 
	C70.867676,75.479019 64.909439,71.576492 62.699455,65.475067 
	C60.898224,60.502159 61.945957,55.946018 65.397781,52.070221 
	C69.409447,47.565819 74.452095,46.261086 80.634285,48.056717 
z"/>
</svg> 